<svg width="251" height="251" viewBox="0 0 251 251" fill="none" xmlns="http://www.w3.org/2000/svg">
<path fill-rule="evenodd" clip-rule="evenodd" d="M250.095 125.129C250.095 194.164 194.131 250.129 125.095 250.129C56.0599 250.129 0.0954857 194.164 0.0954857 125.129C0.0954857 56.093 56.0599 0.128662 125.095 0.128662C194.131 0.128662 250.095 56.093 250.095 125.129ZM225.095 124.482C224.476 125.144 223.597 125.791 222.457 126.425C221.317 127.044 219.909 127.565 218.235 127.987C216.574 128.409 214.716 128.62 212.661 128.62C209.889 128.62 207.482 128.043 205.442 126.889C203.401 125.721 201.825 124.011 200.713 121.759C199.601 119.507 199.045 116.798 199.045 113.632V112.048C199.045 108.91 199.608 106.208 200.734 103.942C201.874 101.676 203.443 99.9592 205.442 98.791C207.44 97.6089 209.713 97.0178 212.26 97.0178C216.412 97.0178 219.501 97.9678 221.528 99.8677C223.568 101.768 224.744 104.406 225.053 107.784H217.517C217.306 106.25 216.82 105.131 216.06 104.427C215.314 103.724 214.146 103.372 212.556 103.372C210.867 103.372 209.523 104.09 208.524 105.525C207.539 106.961 207.046 109.121 207.046 112.006V113.632C207.046 116.587 207.532 118.769 208.503 120.176C209.488 121.569 211.078 122.266 213.274 122.266C214.217 122.266 215.019 122.167 215.68 121.97C216.356 121.759 216.862 121.513 217.2 121.231V117.052H212.324V111.479H225.095V124.482ZM51.0824 103.836H41.9204V128.198H34.0251V103.836H25.0955V97.4612H51.0824V103.836ZM79.1803 127.86V128.198H70.7361L65.5641 117.812H61.912V128.198H54.0378V97.4612H66.4296C68.8221 97.4612 70.898 97.8201 72.6572 98.5378C74.4164 99.2415 75.7745 100.29 76.7315 101.683C77.7026 103.076 78.1881 104.765 78.1881 106.75C78.1881 109.114 77.7378 110.979 76.8371 112.344C75.9504 113.695 74.6416 114.8 72.9105 115.658L79.1803 127.86ZM61.912 111.415H66.4296C67.7103 111.415 68.6743 111.098 69.3217 110.465C69.9832 109.818 70.3139 108.875 70.3139 107.636C70.3139 106.426 69.9762 105.49 69.3006 104.829C68.6251 104.167 67.6681 103.836 66.4296 103.836H61.912V111.415ZM90.5377 123.11H100.417L101.98 128.198H110.466L99.193 97.4612H91.7199L80.5103 128.198H88.9756L90.5377 123.11ZM95.4564 107.024L98.4541 116.735H92.4799L95.4564 107.024ZM112.978 128.198V97.4612H120.81V128.198H112.978ZM133.561 110.317L143.82 128.198H151.652V97.4612H143.799V115.321L133.561 97.4612H125.687V128.198H133.561V110.317ZM156.55 128.198V97.4612H164.382V128.198H156.55ZM177.133 110.317L187.392 128.198H195.224V97.4612H187.371V115.321L177.133 97.4612H169.258V128.198H177.133V110.317ZM26.7136 146.023H25.0954V146.847H26.7136V146.023ZM223.477 145.611H225.095V146.435H223.477V145.611ZM120.991 151.088C120.817 151.334 120.554 151.58 120.201 151.827C119.854 152.073 119.387 152.283 118.799 152.457C118.216 152.63 117.531 152.717 116.741 152.717C115.784 152.717 114.933 152.49 114.188 152.037C113.449 151.578 112.872 150.925 112.458 150.08C112.044 149.234 111.836 148.252 111.836 147.132V145.646C111.836 144.531 112.027 143.563 112.408 142.74C112.794 141.911 113.343 141.273 114.054 140.825C114.77 140.377 115.613 140.153 116.582 140.153C117.461 140.153 118.214 140.307 118.841 140.615C119.468 140.923 119.958 141.348 120.31 141.892C120.669 142.435 120.893 143.059 120.982 143.764H119.949C119.815 142.953 119.476 142.295 118.933 141.791C118.396 141.287 117.612 141.035 116.582 141.035C115.798 141.035 115.129 141.225 114.574 141.606C114.02 141.987 113.597 142.521 113.306 143.21C113.021 143.899 112.878 144.705 112.878 145.629V147.132C112.878 148.073 113.037 148.898 113.357 149.61C113.676 150.321 114.126 150.872 114.709 151.264C115.297 151.65 115.977 151.844 116.75 151.844C117.326 151.844 117.833 151.788 118.27 151.676C118.712 151.563 119.07 151.429 119.345 151.272C119.625 151.11 119.832 150.945 119.966 150.777V147.619H116.682V146.737H120.991V151.088ZM43.515 152.549H44.548V140.321H43.1707L38.6524 151.104L34.1341 140.321H32.7735V152.549H33.8065V147.199L33.7141 141.799L38.2492 152.549H39.0471L43.6074 141.766L43.515 147.199V152.549ZM55.1344 152.549L56.3941 149.123H61.9538L63.2136 152.549H64.2885L59.6611 140.321H58.6785L54.0594 152.549H55.1344ZM59.1739 141.581L61.6263 148.241H56.7216L59.1739 141.581ZM81.8623 152.549L74.8413 142.085V152.549H73.7999V140.321H74.8413L81.8707 150.785V140.321H82.9037V152.549H81.8623ZM93.5069 152.549L94.7666 149.123H100.326L101.586 152.549H102.661L98.0335 140.321H97.051L92.4319 152.549H93.5069ZM97.5464 141.581L99.9988 148.241H95.0941L97.5464 141.581ZM139.245 152.549V151.676H132.677V146.687H138.388V145.805H132.677V141.203H139.203V140.321H131.644V152.549H139.245ZM160.908 152.549H159.875V147.199L159.968 141.766L155.408 152.549H154.61L150.075 141.799L150.167 147.199V152.549H149.134V140.321H150.495L155.013 151.104L159.531 140.321H160.908V152.549ZM179.314 152.549V151.676H172.746V146.687H178.457V145.805H172.746V141.203H179.272V140.321H171.713V152.549H179.314ZM197.265 152.549L190.244 142.085V152.549H189.203V140.321H190.244L197.274 150.785V140.321H198.307V152.549H197.265ZM213.227 141.203H217.417V140.321H208.011V141.203H212.202V152.549H213.227V141.203ZM107.206 213.057C106.201 212.537 105.1 212.231 103.972 212.157C102.844 212.083 101.712 212.242 100.648 212.626C99.131 213.162 97.8198 214.161 96.8992 215.481C95.9275 216.823 95.4044 218.438 95.4044 220.094C95.4044 221.751 95.9275 223.366 96.8992 224.708C98.0035 226.292 99.6567 227.41 101.538 227.844C103.424 228.296 105.41 228.052 107.13 227.156C106.233 229.747 100.609 232.167 96.6501 231.716C93.9816 231.418 91.4964 230.213 89.61 228.302C87.7235 226.391 86.5502 223.891 86.2863 221.219C86.0223 218.547 86.6837 215.865 88.1598 213.622C89.6359 211.379 91.8372 209.711 94.3958 208.896C99.723 207.255 104.88 209.608 107.206 213.057ZM94.5263 220.128V213.219L94.5265 213.17C94.5279 212.887 94.5292 212.622 94.0991 212.626H89.7488C89.4284 212.626 89.4008 212.74 89.551 212.994L89.5554 213.001L89.5607 213.01C89.7999 213.413 90.039 213.816 90.2693 214.223C90.3072 214.29 90.3448 214.357 90.3822 214.424L90.4517 214.55C90.4846 214.61 90.5172 214.67 90.5496 214.73L90.5793 214.785C90.6462 214.941 90.7615 215.072 90.9082 215.157C91.0549 215.242 91.2252 215.279 91.394 215.26C92.0624 215.236 92.0663 215.26 92.0663 215.96V223.079V227.152C92.0663 227.528 92.1889 227.694 92.5726 227.67C92.9562 227.646 93.2607 227.67 93.6008 227.67C94.0616 227.67 94.29 227.67 94.4032 227.556C94.5144 227.444 94.5144 227.221 94.5144 226.78L94.5263 220.128ZM98.2138 217.937C97.9327 218.616 97.7909 219.345 97.7969 220.081C97.7767 220.82 97.9057 221.556 98.1763 222.245C98.4469 222.933 98.8535 223.56 99.3718 224.088C99.89 224.616 100.509 225.034 101.193 225.317C101.876 225.6 102.61 225.743 103.35 225.736C104.084 225.74 104.813 225.6 105.494 225.323C106.174 225.045 106.793 224.636 107.316 224.12C107.839 223.603 108.254 222.988 108.539 222.311C108.824 221.634 108.973 220.907 108.977 220.172C108.982 219.437 108.841 218.708 108.564 218.028C108.286 217.347 107.877 216.728 107.361 216.205C106.844 215.683 106.229 215.267 105.552 214.982C104.875 214.697 104.148 214.548 103.413 214.544C102.678 214.528 101.946 214.659 101.263 214.93C100.579 215.202 99.9571 215.608 99.4333 216.124C98.9096 216.641 98.4949 217.257 98.2138 217.937ZM111.441 220.334V213.935C111.441 213.452 111.572 213.27 112.082 213.278C112.949 213.292 113.816 213.292 114.682 213.291C115.484 213.291 116.285 213.29 117.085 213.302C118.434 213.33 119.715 213.614 120.723 214.623C121.268 215.181 121.622 215.896 121.736 216.667C122.384 220.318 119.932 222.26 117.16 222.541C116.544 222.599 115.924 222.624 115.305 222.616C114.91 222.616 114.759 222.766 114.763 223.165V226.622C114.763 227.023 114.763 227.221 114.665 227.319C114.569 227.413 114.38 227.413 114.008 227.413H111.995C111.56 227.413 111.429 227.251 111.433 226.839C111.449 224.668 111.441 222.501 111.441 220.334ZM114.771 217.905V219.602C114.771 219.867 114.87 220.033 115.167 220.025C115.68 220.042 116.194 220.028 116.705 219.982C117.175 219.947 117.613 219.729 117.924 219.375C118.235 219.02 118.394 218.558 118.366 218.087C118.398 216.806 117.927 216.169 116.784 215.916C116.261 215.84 115.731 215.811 115.202 215.829C114.894 215.829 114.763 215.952 114.771 216.256C114.773 216.369 114.774 216.481 114.774 216.594C114.775 216.73 114.775 216.867 114.775 217.003L114.773 217.345L114.773 217.363L114.772 217.625L114.771 217.905ZM136.618 227.394C137.252 227.124 137.791 226.672 138.168 226.096C138.178 226.328 138.176 226.561 138.161 226.792C138.105 227.267 138.299 227.433 138.774 227.405C139.406 227.374 140.047 227.382 140.68 227.405C141.091 227.421 141.222 227.255 141.222 226.86V223.094C141.256 222.15 141.227 221.204 141.135 220.263C141.065 219.51 140.75 218.802 140.24 218.245C139.729 217.688 139.05 217.313 138.307 217.178C136.598 216.794 134.965 217.135 133.359 217.724C133.336 217.731 133.314 217.739 133.292 217.749C133.25 217.768 133.211 217.793 133.175 217.823C133.162 217.835 133.149 217.847 133.137 217.86C133.115 217.884 133.095 217.909 133.078 217.936C133.013 218.039 132.988 218.162 133.007 218.281V219.828C132.995 220.223 133.09 220.334 133.462 220.105C134.289 219.599 135.231 219.31 136.199 219.266C137.322 219.215 137.907 219.539 138.113 220.35C138.192 220.654 138.129 220.793 137.797 220.828C137.597 220.851 137.398 220.875 137.201 220.9C136.926 220.935 136.654 220.972 136.383 221.009L136.145 221.042C135.895 221.076 135.646 221.11 135.396 221.141C133.434 221.378 132.299 222.355 132.026 224.056C131.938 224.461 131.936 224.881 132.021 225.288C132.107 225.694 132.277 226.078 132.52 226.414C132.764 226.75 133.076 227.031 133.436 227.238C133.796 227.445 134.196 227.573 134.609 227.615C135.286 227.741 135.985 227.664 136.618 227.394ZM138.172 223.031C138.255 224.091 137.646 225.361 136.298 225.305V225.297C135.554 225.297 135.115 224.997 135.036 224.435C134.999 224.284 134.994 224.126 135.02 223.972C135.026 223.937 135.033 223.903 135.042 223.869C135.05 223.841 135.059 223.813 135.068 223.785C135.098 223.699 135.139 223.617 135.189 223.541C135.236 223.468 135.291 223.401 135.353 223.342C135.386 223.31 135.42 223.281 135.457 223.253L135.484 223.234C135.494 223.226 135.505 223.219 135.515 223.211C135.646 223.125 135.792 223.067 135.946 223.039C136.546 222.891 137.159 222.797 137.777 222.758C137.971 222.735 138.149 222.766 138.172 223.031ZM128.143 223.273H125.374C124.979 223.273 124.9 223.403 125.007 223.771C125.109 224.185 125.343 224.554 125.673 224.824C126.003 225.095 126.412 225.251 126.838 225.27C127.951 225.437 129.089 225.257 130.096 224.756C130.452 224.562 130.599 224.645 130.587 225.052C130.561 225.412 130.561 225.772 130.587 226.132C130.615 226.253 130.618 226.379 130.595 226.501C130.572 226.623 130.524 226.74 130.455 226.842C130.428 226.882 130.398 226.918 130.366 226.953C130.314 227.009 130.254 227.058 130.189 227.099C130.084 227.165 129.966 227.209 129.843 227.228C128.306 227.756 126.648 227.829 125.07 227.437C124.249 227.247 123.504 226.815 122.932 226.197C122.36 225.578 121.988 224.802 121.862 223.969C121.467 222.047 121.688 220.231 123.013 218.677C125.022 216.304 129.377 216.47 130.797 219.148C131.247 220.023 131.466 220.999 131.433 221.983C131.433 222.634 131.433 222.957 131.272 223.118C131.112 223.277 130.795 223.277 130.164 223.277L128.143 223.273ZM126.628 221.252H127.969C128.202 221.252 128.364 221.2 128.364 220.916C128.382 220.57 128.286 220.228 128.091 219.943C127.896 219.657 127.613 219.443 127.285 219.333C127.026 219.272 126.757 219.265 126.496 219.312C126.234 219.36 125.985 219.461 125.765 219.61C125.544 219.759 125.357 219.951 125.215 220.176C125.073 220.401 124.979 220.653 124.939 220.916C124.9 221.208 125.062 221.236 125.272 221.236L126.628 221.252ZM156.125 225.393C156.142 225.536 156.16 225.674 156.143 225.783C156.143 226.159 156.151 226.452 156.135 226.749C156.117 226.86 156.142 226.974 156.205 227.068C156.268 227.161 156.365 227.227 156.476 227.251C158.374 227.789 160.272 227.931 162.123 227.093C162.698 226.867 163.185 226.463 163.514 225.941C163.844 225.419 163.998 224.805 163.954 224.19C163.927 222.865 163.191 222.102 162.068 221.619C161.711 221.467 161.346 221.333 160.982 221.198C160.637 221.071 160.291 220.943 159.952 220.8C159.616 220.658 159.268 220.452 159.319 220.009C159.371 219.566 159.742 219.428 160.138 219.345C161.082 219.191 162.051 219.339 162.906 219.768C163.211 219.903 163.341 219.879 163.341 219.507V217.854C163.352 217.79 163.349 217.725 163.333 217.662C163.316 217.6 163.286 217.542 163.246 217.491C163.205 217.441 163.154 217.4 163.096 217.372C163.038 217.343 162.975 217.326 162.91 217.324C162.4 217.237 161.898 217.11 161.384 217.063C160.078 216.879 158.749 217.121 157.591 217.751C157.127 218.005 156.745 218.386 156.489 218.849C156.232 219.311 156.113 219.837 156.143 220.365C156.132 220.886 156.271 221.398 156.544 221.842C156.817 222.285 157.212 222.64 157.682 222.865C158.251 223.15 158.842 223.388 159.45 223.577C159.496 223.591 159.543 223.606 159.589 223.622C159.652 223.643 159.715 223.666 159.777 223.688C159.975 223.762 160.169 223.845 160.359 223.937C160.644 224.079 160.901 224.285 160.854 224.648C160.841 224.736 160.812 224.819 160.77 224.895C160.737 224.955 160.696 225.011 160.647 225.06C160.536 225.172 160.392 225.245 160.237 225.269C160.072 225.318 159.904 225.352 159.734 225.372C158.91 225.451 158.078 225.34 157.302 225.048C157.182 225.005 157.057 224.926 156.934 224.848C156.685 224.69 156.442 224.536 156.246 224.684C156.054 224.83 156.09 225.12 156.125 225.393ZM149.985 218.791V213.112C149.985 212.625 150.139 212.436 150.638 212.463C151.296 212.5 151.956 212.5 152.615 212.463C153.125 212.436 153.252 212.641 153.252 213.124V223.339V223.909C153.279 224.874 153.762 225.285 154.711 225.146C155.399 225.048 155.407 225.056 155.407 225.744V226.93C155.407 227.183 155.332 227.357 155.055 227.413C154.174 227.65 153.258 227.725 152.35 227.634C151.747 227.552 151.191 227.262 150.779 226.814C150.366 226.367 150.122 225.79 150.088 225.182C150.014 224.206 149.992 223.226 150.021 222.248C149.983 221.247 149.984 220.249 149.985 219.251L149.985 218.791ZM148.724 217.107C147.439 217.016 146.549 217.589 145.876 218.689C145.876 218.54 145.873 218.401 145.871 218.263C145.869 218.1 145.868 217.939 145.876 217.763C145.892 217.439 145.754 217.289 145.426 217.289H143.108C142.756 217.285 142.622 217.443 142.622 217.791V226.966C142.618 227.318 142.752 227.453 143.108 227.453C143.812 227.429 144.52 227.409 145.224 227.453C145.766 227.484 145.88 227.267 145.88 226.765C145.88 226.277 145.878 225.792 145.876 225.308C145.872 224.344 145.867 223.383 145.88 222.414C145.9 220.959 146.557 220.108 147.767 219.927C148.126 219.883 148.49 219.93 148.827 220.061C149.23 220.18 149.294 220.021 149.294 219.666C149.294 219.013 149.27 218.36 149.294 217.708C149.309 217.281 149.12 217.134 148.724 217.107Z" fill="black"/>
</svg>
